<?xml version="1.0" standalone="no"?>
<!DOCTYPE svg PUBLIC "-//W3C//DTD SVG 20010904//EN"
 "http://www.w3.org/TR/2001/REC-SVG-20010904/DTD/svg10.dtd">
<svg version="1.0" xmlns="http://www.w3.org/2000/svg"
 width="512.000000pt" height="512.000000pt" viewBox="0 0 512.000000 512.000000"
 preserveAspectRatio="xMidYMid meet">
<metadata>
Created by potrace 1.11, written by Peter Selinger 2001-2013
</metadata>
<g transform="translate(0.000000,512.000000) scale(0.100000,-0.100000)"
fill="#000000" stroke="none">
<path d="M610 2561 l0 -2411 649 0 650 0 43 55 c69 89 154 230 182 303 78 205
50 362 -89 498 -55 54 -88 75 -239 149 -96 47 -214 113 -262 148 -371 264
-603 707 -605 1159 -1 150 15 306 46 463 8 39 17 84 20 100 3 17 7 35 9 40 1
6 8 30 15 55 7 25 23 80 37 122 14 43 25 80 25 83 -1 12 85 209 133 305 228
457 635 883 1141 1194 61 37 117 71 125 77 8 5 26 14 40 20 l25 12 -35 8 c-83
18 -202 21 -1032 26 l-878 4 0 -2410z"/>
<path d="M2844 4816 c-69 -81 -165 -227 -199 -301 -15 -33 -31 -67 -36 -76 -4
-9 -14 -52 -22 -95 -46 -246 70 -420 348 -524 399 -149 748 -551 859 -987 47
-184 53 -421 16 -658 -5 -33 -11 -76 -14 -95 -3 -19 -12 -66 -21 -105 -9 -38
-18 -77 -20 -85 -70 -303 -268 -687 -510 -990 -163 -204 -393 -422 -610 -577
-53 -37 -126 -90 -163 -116 -45 -32 -59 -46 -42 -43 14 3 54 8 90 11 153 14
379 62 545 116 55 18 102 33 105 34 3 1 14 5 25 10 11 4 47 19 80 32 33 14 98
45 145 70 458 247 771 623 944 1136 33 97 47 149 81 299 7 31 13 66 20 113 4
22 9 54 12 70 34 196 39 823 8 984 -2 10 -6 42 -10 71 -4 29 -9 62 -11 74 -2
12 -7 37 -10 56 -3 19 -7 43 -10 52 -3 10 -7 30 -10 45 -13 72 -70 251 -118
368 -123 296 -307 552 -536 743 -100 84 -88 75 -182 135 -185 120 -383 206
-613 269 l-90 24 -51 -60z"/>
<path d="M2321 2899 c-29 -4 -86 -23 -126 -43 -256 -126 -315 -472 -116 -675
90 -91 192 -131 327 -128 80 3 100 7 155 35 35 17 82 46 103 64 47 39 109 133
130 196 97 297 -159 595 -473 551z"/>
</g>
</svg>
